<svg width="227" height="331" viewBox="0 0 227 331" fill="none" xmlns="http://www.w3.org/2000/svg">
<path d="M16.0511 85H3.16051V48.6364H16.1577C19.8153 48.6364 22.964 49.3643 25.6037 50.8203C28.2434 52.2644 30.2734 54.3419 31.6939 57.0526C33.1262 59.7633 33.8423 63.0066 33.8423 66.7827C33.8423 70.5705 33.1262 73.8258 31.6939 76.5483C30.2734 79.2708 28.2315 81.3601 25.5682 82.8161C22.9167 84.272 19.7443 85 16.0511 85ZM10.8487 78.4126H15.7315C18.0043 78.4126 19.916 78.0102 21.4666 77.2053C23.0291 76.3885 24.201 75.1278 24.9822 73.4233C25.7753 71.7069 26.1719 69.4934 26.1719 66.7827C26.1719 64.0956 25.7753 61.8999 24.9822 60.1953C24.201 58.4908 23.035 57.236 21.4844 56.4311C19.9337 55.6262 18.022 55.2237 15.7493 55.2237H10.8487V78.4126ZM47.1724 85.5149C45.4324 85.5149 43.8817 85.2131 42.5204 84.6094C41.1592 83.9938 40.082 83.0883 39.2889 81.8928C38.5076 80.6854 38.117 79.1821 38.117 77.3828C38.117 75.8677 38.3952 74.5952 38.9515 73.5653C39.5079 72.5355 40.2654 71.7069 41.2243 71.0795C42.1831 70.4522 43.2721 69.9787 44.4913 69.6591C45.7224 69.3395 47.0126 69.1146 48.362 68.9844C49.9482 68.8187 51.2266 68.6648 52.1973 68.5227C53.1679 68.3688 53.8722 68.1439 54.3102 67.848C54.7482 67.5521 54.9672 67.1141 54.9672 66.5341V66.4276C54.9672 65.303 54.612 64.433 53.9018 63.8175C53.2034 63.2019 52.2091 62.8942 50.9189 62.8942C49.5576 62.8942 48.4745 63.196 47.6696 63.7997C46.8646 64.3916 46.332 65.1373 46.0716 66.0369L39.0758 65.4688C39.4309 63.8116 40.1293 62.3793 41.171 61.1719C42.2127 59.9527 43.5562 59.0175 45.2015 58.3665C46.8587 57.7036 48.7763 57.3722 50.9544 57.3722C52.4695 57.3722 53.9196 57.5497 55.3045 57.9048C56.7013 58.2599 57.9383 58.8104 59.0154 59.5561C60.1045 60.3018 60.9627 61.2607 61.59 62.4325C62.2174 63.5926 62.5311 64.9834 62.5311 66.6051V85H55.3578V81.218H55.1447C54.7067 82.0703 54.1208 82.822 53.3869 83.473C52.653 84.1122 51.7711 84.6153 50.7413 84.9822C49.7115 85.3374 48.5218 85.5149 47.1724 85.5149ZM49.3386 80.2947C50.4513 80.2947 51.4338 80.0758 52.286 79.6378C53.1383 79.188 53.8071 78.5843 54.2924 77.8267C54.7778 77.0691 55.0204 76.2109 55.0204 75.2521V72.358C54.7837 72.5118 54.4582 72.6539 54.0439 72.7841C53.6414 72.9025 53.1857 73.0149 52.6767 73.1214C52.1677 73.2161 51.6587 73.3049 51.1497 73.3878C50.6407 73.4588 50.179 73.5239 49.7647 73.5831C48.877 73.7133 48.1016 73.9205 47.4387 74.2045C46.7759 74.4886 46.2609 74.8733 45.894 75.3587C45.527 75.8321 45.3436 76.424 45.3436 77.1342C45.3436 78.1641 45.7164 78.9512 46.4622 79.4957C47.2198 80.0284 48.1786 80.2947 49.3386 80.2947ZM68.3993 85V57.7273H75.7324V62.4858H76.0165C76.5137 60.7931 77.3482 59.5147 78.5201 58.6506C79.6919 57.7746 81.0414 57.3366 82.5684 57.3366C82.9471 57.3366 83.3555 57.3603 83.7935 57.4077C84.2315 57.455 84.6162 57.5201 84.9476 57.603V64.3146C84.5925 64.2081 84.1013 64.1134 83.4739 64.0305C82.8465 63.9477 82.2724 63.9062 81.7516 63.9062C80.6389 63.9062 79.6446 64.1489 78.7686 64.6342C77.9045 65.1077 77.218 65.7706 76.709 66.6229C76.2118 67.4751 75.9632 68.4576 75.9632 69.5703V85H68.3993ZM95.712 77.152L95.7298 68.0788H96.8306L105.566 57.7273H114.249L102.512 71.4347H100.719L95.712 77.152ZM88.8583 85V48.6364H96.4222V85H88.8583ZM105.904 85L97.8782 73.1214L102.921 67.777L114.764 85H105.904ZM10.8487 109.636V146H3.16051V109.636H10.8487ZM24.5961 130.233V146H17.0321V118.727H24.2409V123.539H24.5605C25.1642 121.953 26.1763 120.698 27.5968 119.775C29.0172 118.84 30.7395 118.372 32.7637 118.372C34.6576 118.372 36.3089 118.786 37.7175 119.615C39.1261 120.444 40.2211 121.627 41.0023 123.166C41.7836 124.693 42.1742 126.516 42.1742 128.635V146H34.6103V129.984C34.6221 128.315 34.196 127.013 33.3319 126.078C32.4677 125.131 31.2781 124.658 29.763 124.658C28.745 124.658 27.8453 124.877 27.0641 125.315C26.2947 125.753 25.691 126.392 25.253 127.232C24.8269 128.061 24.6079 129.061 24.5961 130.233ZM62.642 118.727V124.409H46.218V118.727H62.642ZM49.9467 112.193H57.5107V137.619C57.5107 138.318 57.6172 138.862 57.8303 139.253C58.0433 139.632 58.3393 139.898 58.718 140.052C59.1087 140.206 59.5585 140.283 60.0675 140.283C60.4226 140.283 60.7777 140.253 61.1328 140.194C61.4879 140.123 61.7602 140.07 61.9496 140.034L63.1392 145.663C62.7604 145.781 62.2277 145.917 61.5412 146.071C60.8546 146.237 60.0201 146.337 59.0376 146.373C57.2147 146.444 55.6167 146.201 54.2436 145.645C52.8823 145.089 51.8229 144.224 51.0653 143.053C50.3078 141.881 49.9349 140.401 49.9467 138.614V112.193ZM79.7053 146.533C76.8999 146.533 74.4851 145.964 72.4609 144.828C70.4486 143.68 68.898 142.058 67.8089 139.963C66.7199 137.856 66.1754 135.364 66.1754 132.488C66.1754 129.683 66.7199 127.22 67.8089 125.102C68.898 122.983 70.4309 121.331 72.4077 120.148C74.3963 118.964 76.7282 118.372 79.4034 118.372C81.2027 118.372 82.8776 118.662 84.4283 119.242C85.9908 119.81 87.352 120.669 88.5121 121.817C89.6839 122.965 90.5954 124.409 91.2464 126.149C91.8975 127.877 92.223 129.902 92.223 132.222V134.299H69.1939V129.612H85.103C85.103 128.522 84.8662 127.558 84.3928 126.717C83.9193 125.877 83.2623 125.22 82.4219 124.746C81.5933 124.261 80.6286 124.018 79.5277 124.018C78.3795 124.018 77.3615 124.285 76.4737 124.817C75.5978 125.338 74.9112 126.043 74.4141 126.93C73.9169 127.806 73.6624 128.783 73.6506 129.86V134.317C73.6506 135.666 73.8991 136.832 74.3963 137.815C74.9053 138.797 75.6214 139.555 76.5447 140.087C77.468 140.62 78.563 140.886 79.8295 140.886C80.67 140.886 81.4394 140.768 82.1378 140.531C82.8362 140.295 83.4339 139.939 83.9311 139.466C84.4283 138.992 84.8071 138.412 85.0675 137.726L92.0632 138.188C91.7081 139.868 90.9801 141.336 89.8793 142.591C88.7902 143.834 87.3816 144.804 85.6534 145.503C83.937 146.189 81.9543 146.533 79.7053 146.533ZM97.1591 146V118.727H104.492V123.486H104.776C105.273 121.793 106.108 120.515 107.28 119.651C108.452 118.775 109.801 118.337 111.328 118.337C111.707 118.337 112.115 118.36 112.553 118.408C112.991 118.455 113.376 118.52 113.707 118.603V125.315C113.352 125.208 112.861 125.113 112.234 125.031C111.606 124.948 111.032 124.906 110.511 124.906C109.399 124.906 108.404 125.149 107.528 125.634C106.664 126.108 105.978 126.771 105.469 127.623C104.972 128.475 104.723 129.458 104.723 130.57V146H97.1591ZM117.618 146V118.727H125.182V146H117.618ZM121.418 115.212C120.293 115.212 119.329 114.839 118.524 114.093C117.731 113.335 117.334 112.43 117.334 111.376C117.334 110.335 117.731 109.441 118.524 108.695C119.329 107.938 120.293 107.559 121.418 107.559C122.542 107.559 123.501 107.938 124.294 108.695C125.099 109.441 125.502 110.335 125.502 111.376C125.502 112.43 125.099 113.335 124.294 114.093C123.501 114.839 122.542 115.212 121.418 115.212ZM143.564 146.533C140.806 146.533 138.42 145.947 136.408 144.775C134.408 143.591 132.863 141.946 131.774 139.839C130.685 137.72 130.14 135.264 130.14 132.47C130.14 129.653 130.685 127.191 131.774 125.084C132.863 122.965 134.408 121.32 136.408 120.148C138.42 118.964 140.806 118.372 143.564 118.372C146.322 118.372 148.701 118.964 150.701 120.148C152.714 121.32 154.264 122.965 155.353 125.084C156.442 127.191 156.987 129.653 156.987 132.47C156.987 135.264 156.442 137.72 155.353 139.839C154.264 141.946 152.714 143.591 150.701 144.775C148.701 145.947 146.322 146.533 143.564 146.533ZM143.599 140.673C144.854 140.673 145.901 140.318 146.742 139.608C147.582 138.886 148.216 137.903 148.642 136.661C149.08 135.418 149.299 134.003 149.299 132.417C149.299 130.831 149.08 129.416 148.642 128.173C148.216 126.93 147.582 125.948 146.742 125.226C145.901 124.504 144.854 124.143 143.599 124.143C142.333 124.143 141.267 124.504 140.403 125.226C139.551 125.948 138.906 126.93 138.468 128.173C138.042 129.416 137.828 130.831 137.828 132.417C137.828 134.003 138.042 135.418 138.468 136.661C138.906 137.903 139.551 138.886 140.403 139.608C141.267 140.318 142.333 140.673 143.599 140.673ZM161.905 146V118.727H169.238V123.486H169.522C170.02 121.793 170.854 120.515 172.026 119.651C173.198 118.775 174.547 118.337 176.074 118.337C176.453 118.337 176.861 118.36 177.299 118.408C177.737 118.455 178.122 118.52 178.453 118.603V125.315C178.098 125.208 177.607 125.113 176.98 125.031C176.352 124.948 175.778 124.906 175.257 124.906C174.145 124.906 173.15 125.149 172.275 125.634C171.41 126.108 170.724 126.771 170.215 127.623C169.718 128.475 169.469 129.458 169.469 130.57V146H161.905Z" fill="white"/>
<path d="M147.284 184.202L144.514 184.372C144.467 184.135 144.365 183.922 144.209 183.733C144.053 183.539 143.847 183.385 143.591 183.271C143.34 183.153 143.039 183.094 142.689 183.094C142.22 183.094 141.825 183.193 141.503 183.392C141.181 183.586 141.02 183.847 141.02 184.173C141.02 184.434 141.124 184.654 141.332 184.834C141.541 185.014 141.898 185.158 142.405 185.267L144.379 185.665C145.44 185.883 146.231 186.233 146.751 186.716C147.272 187.199 147.533 187.833 147.533 188.619C147.533 189.334 147.322 189.962 146.901 190.501C146.484 191.041 145.911 191.463 145.182 191.766C144.457 192.064 143.622 192.213 142.675 192.213C141.231 192.213 140.08 191.912 139.223 191.311C138.371 190.705 137.871 189.881 137.724 188.839L140.7 188.683C140.79 189.124 141.008 189.46 141.354 189.692C141.699 189.919 142.142 190.033 142.682 190.033C143.212 190.033 143.638 189.931 143.96 189.727C144.287 189.519 144.453 189.251 144.457 188.925C144.453 188.65 144.337 188.425 144.109 188.25C143.882 188.07 143.532 187.933 143.058 187.838L141.169 187.462C140.104 187.249 139.311 186.879 138.79 186.354C138.274 185.828 138.016 185.158 138.016 184.344C138.016 183.643 138.205 183.039 138.584 182.533C138.967 182.026 139.505 181.635 140.196 181.361C140.892 181.086 141.706 180.949 142.639 180.949C144.017 180.949 145.101 181.24 145.892 181.822C146.688 182.405 147.152 183.198 147.284 184.202ZM154.409 192.213C153.287 192.213 152.321 191.986 151.512 191.531C150.707 191.072 150.087 190.423 149.651 189.585C149.215 188.742 148.998 187.746 148.998 186.595C148.998 185.473 149.215 184.488 149.651 183.641C150.087 182.793 150.7 182.133 151.49 181.659C152.286 181.186 153.219 180.949 154.289 180.949C155.008 180.949 155.678 181.065 156.299 181.297C156.924 181.524 157.468 181.867 157.932 182.327C158.401 182.786 158.766 183.364 159.026 184.06C159.286 184.751 159.417 185.561 159.417 186.489V187.32H150.205V185.445H156.569C156.569 185.009 156.474 184.623 156.284 184.287C156.095 183.951 155.832 183.688 155.496 183.499C155.165 183.304 154.779 183.207 154.338 183.207C153.879 183.207 153.472 183.314 153.117 183.527C152.766 183.735 152.492 184.017 152.293 184.372C152.094 184.723 151.992 185.113 151.988 185.544V187.327C151.988 187.866 152.087 188.333 152.286 188.726C152.489 189.119 152.776 189.422 153.145 189.635C153.515 189.848 153.953 189.955 154.459 189.955C154.795 189.955 155.103 189.907 155.382 189.812C155.662 189.718 155.901 189.576 156.1 189.386C156.299 189.197 156.45 188.965 156.554 188.69L159.353 188.875C159.211 189.547 158.919 190.134 158.479 190.636C158.043 191.134 157.48 191.522 156.789 191.801C156.102 192.076 155.309 192.213 154.409 192.213ZM166.363 192.213C165.24 192.213 164.275 191.986 163.465 191.531C162.66 191.072 162.04 190.423 161.604 189.585C161.168 188.742 160.951 187.746 160.951 186.595C160.951 185.473 161.168 184.488 161.604 183.641C162.04 182.793 162.653 182.133 163.444 181.659C164.239 181.186 165.172 180.949 166.242 180.949C166.962 180.949 167.632 181.065 168.252 181.297C168.877 181.524 169.421 181.867 169.885 182.327C170.354 182.786 170.719 183.364 170.979 184.06C171.239 184.751 171.37 185.561 171.37 186.489V187.32H162.158V185.445H168.522C168.522 185.009 168.427 184.623 168.238 184.287C168.048 183.951 167.785 183.688 167.449 183.499C167.118 183.304 166.732 183.207 166.292 183.207C165.832 183.207 165.425 183.314 165.07 183.527C164.72 183.735 164.445 184.017 164.246 184.372C164.047 184.723 163.945 185.113 163.941 185.544V187.327C163.941 187.866 164.04 188.333 164.239 188.726C164.443 189.119 164.729 189.422 165.098 189.635C165.468 189.848 165.906 189.955 166.412 189.955C166.748 189.955 167.056 189.907 167.336 189.812C167.615 189.718 167.854 189.576 168.053 189.386C168.252 189.197 168.403 188.965 168.507 188.69L171.306 188.875C171.164 189.547 170.873 190.134 170.432 190.636C169.997 191.134 169.433 191.522 168.742 191.801C168.055 192.076 167.262 192.213 166.363 192.213ZM178.03 177.455H181.822L185.828 187.227H185.999L190.004 177.455H193.797V192H190.814V182.533H190.693L186.929 191.929H184.898L181.134 182.497H181.013V192H178.03V177.455ZM201.203 192.213C200.1 192.213 199.145 191.979 198.341 191.51C197.54 191.036 196.922 190.378 196.487 189.536C196.051 188.688 195.833 187.705 195.833 186.588C195.833 185.461 196.051 184.476 196.487 183.634C196.922 182.786 197.54 182.128 198.341 181.659C199.145 181.186 200.1 180.949 201.203 180.949C202.306 180.949 203.258 181.186 204.058 181.659C204.863 182.128 205.483 182.786 205.919 183.634C206.354 184.476 206.572 185.461 206.572 186.588C206.572 187.705 206.354 188.688 205.919 189.536C205.483 190.378 204.863 191.036 204.058 191.51C203.258 191.979 202.306 192.213 201.203 192.213ZM201.217 189.869C201.719 189.869 202.138 189.727 202.474 189.443C202.81 189.154 203.064 188.761 203.234 188.264C203.409 187.767 203.497 187.201 203.497 186.567C203.497 185.932 203.409 185.366 203.234 184.869C203.064 184.372 202.81 183.979 202.474 183.69C202.138 183.402 201.719 183.257 201.217 183.257C200.71 183.257 200.284 183.402 199.939 183.69C199.598 183.979 199.34 184.372 199.164 184.869C198.994 185.366 198.909 185.932 198.909 186.567C198.909 187.201 198.994 187.767 199.164 188.264C199.34 188.761 199.598 189.154 199.939 189.443C200.284 189.727 200.71 189.869 201.217 189.869ZM208.539 192V181.091H211.473V182.994H211.586C211.785 182.317 212.119 181.806 212.588 181.46C213.056 181.11 213.596 180.935 214.207 180.935C214.359 180.935 214.522 180.944 214.697 180.963C214.872 180.982 215.026 181.008 215.159 181.041V183.726C215.017 183.683 214.82 183.645 214.569 183.612C214.318 183.579 214.089 183.562 213.88 183.562C213.435 183.562 213.038 183.66 212.687 183.854C212.342 184.043 212.067 184.308 211.863 184.649C211.664 184.99 211.565 185.383 211.565 185.828V192H208.539ZM221.187 192.213C220.065 192.213 219.099 191.986 218.289 191.531C217.484 191.072 216.864 190.423 216.428 189.585C215.993 188.742 215.775 187.746 215.775 186.595C215.775 185.473 215.993 184.488 216.428 183.641C216.864 182.793 217.477 182.133 218.268 181.659C219.063 181.186 219.996 180.949 221.066 180.949C221.786 180.949 222.456 181.065 223.076 181.297C223.701 181.524 224.246 181.867 224.71 182.327C225.178 182.786 225.543 183.364 225.803 184.06C226.064 184.751 226.194 185.561 226.194 186.489V187.32H216.982V185.445H223.346C223.346 185.009 223.251 184.623 223.062 184.287C222.872 183.951 222.61 183.688 222.273 183.499C221.942 183.304 221.556 183.207 221.116 183.207C220.656 183.207 220.249 183.314 219.894 183.527C219.544 183.735 219.269 184.017 219.07 184.372C218.871 184.723 218.77 185.113 218.765 185.544V187.327C218.765 187.866 218.864 188.333 219.063 188.726C219.267 189.119 219.553 189.422 219.923 189.635C220.292 189.848 220.73 189.955 221.237 189.955C221.573 189.955 221.88 189.907 222.16 189.812C222.439 189.718 222.678 189.576 222.877 189.386C223.076 189.197 223.228 188.965 223.332 188.69L226.13 188.875C225.988 189.547 225.697 190.134 225.256 190.636C224.821 191.134 224.257 191.522 223.566 191.801C222.879 192.076 222.086 192.213 221.187 192.213Z" fill="#A65840"/>
<path d="M9.375 29.2983C7.76989 29.2983 6.4027 28.8615 5.27344 27.9879C4.14418 27.1072 3.28125 25.8324 2.68466 24.1634C2.08807 22.4872 1.78977 20.4631 1.78977 18.0909C1.78977 15.733 2.08807 13.7195 2.68466 12.0504C3.28835 10.3743 4.15483 9.09588 5.28409 8.2152C6.42045 7.32741 7.78409 6.88352 9.375 6.88352C10.9659 6.88352 12.326 7.32741 13.4553 8.2152C14.5916 9.09588 15.4581 10.3743 16.0547 12.0504C16.6584 13.7195 16.9602 15.733 16.9602 18.0909C16.9602 20.4631 16.6619 22.4872 16.0653 24.1634C15.4688 25.8324 14.6058 27.1072 13.4766 27.9879C12.3473 28.8615 10.9801 29.2983 9.375 29.2983ZM9.375 26.9545C10.9659 26.9545 12.2017 26.1875 13.0824 24.6534C13.9631 23.1193 14.4034 20.9318 14.4034 18.0909C14.4034 16.2017 14.201 14.593 13.7962 13.2649C13.3984 11.9368 12.8232 10.9247 12.0703 10.2287C11.3246 9.53267 10.4261 9.18466 9.375 9.18466C7.7983 9.18466 6.56605 9.96236 5.67827 11.5178C4.79048 13.0661 4.34659 15.2571 4.34659 18.0909C4.34659 19.9801 4.54545 21.5852 4.94318 22.9062C5.34091 24.2273 5.91264 25.2322 6.65838 25.9212C7.41122 26.6101 8.31676 26.9545 9.375 26.9545ZM21.0085 29V27.0824L28.2102 19.1989C29.0554 18.2756 29.7514 17.473 30.2983 16.7912C30.8452 16.1023 31.25 15.456 31.5128 14.8523C31.7827 14.2415 31.9176 13.6023 31.9176 12.9347C31.9176 12.1676 31.733 11.5036 31.3636 10.9425C31.0014 10.3814 30.5043 9.94815 29.8722 9.64276C29.2401 9.33736 28.5298 9.18466 27.7415 9.18466C26.9034 9.18466 26.1719 9.35866 25.5469 9.70668C24.929 10.0476 24.4496 10.527 24.1087 11.1449C23.7749 11.7628 23.608 12.4872 23.608 13.3182H21.0938C21.0938 12.0398 21.3885 10.9176 21.978 9.9517C22.5675 8.98579 23.37 8.23295 24.3857 7.69318C25.4084 7.15341 26.5554 6.88352 27.8267 6.88352C29.1051 6.88352 30.2379 7.15341 31.2251 7.69318C32.2124 8.23295 32.9865 8.96094 33.5476 9.87713C34.1087 10.7933 34.3892 11.8125 34.3892 12.9347C34.3892 13.7372 34.2436 14.522 33.9524 15.2891C33.6683 16.049 33.1712 16.8977 32.4609 17.8352C31.7578 18.7656 30.7812 19.902 29.5312 21.2443L24.6307 26.4858V26.6562H34.7727V29H21.0085Z" fill="white"/>
<line y1="189.5" x2="121" y2="189.5" stroke="#A65840" stroke-width="5"/>
<rect x="28" y="317" width="16" height="14" fill="#A65840"/>
<rect y="317" width="16" height="14" fill="#905745" fill-opacity="0.55"/>
<rect y="317" width="16" height="14" fill="#905745" fill-opacity="0.55"/>
<rect y="317" width="16" height="14" fill="#905745" fill-opacity="0.55"/>
<rect x="56" y="317" width="16" height="14" fill="#905745" fill-opacity="0.55"/>
<rect x="84" y="317" width="16" height="14" fill="#905745" fill-opacity="0.55"/>
</svg>
