<svg width="56" height="78" viewBox="0 0 56 78" fill="none" xmlns="http://www.w3.org/2000/svg">
<path d="M42 77.9861C45.713 77.9861 49.274 76.1887 51.8995 72.9895C54.525 69.7902 56 65.4511 56 60.9266C56 56.4022 54.525 52.0631 51.8995 48.8638C49.274 45.6645 45.713 43.8672 42 43.8672C38.287 43.8672 34.726 45.6645 32.1005 48.8638C29.475 52.0631 28 56.4022 28 60.9266C28 65.4511 29.475 69.7902 32.1005 72.9895C34.726 76.1887 38.287 77.9861 42 77.9861ZM48.716 56.0866L43.376 66.9364C43.1413 67.4131 42.8206 67.8183 42.438 68.1212C42.0555 68.424 41.6214 68.6166 41.1686 68.6843C40.7158 68.752 40.2564 68.693 39.8251 68.5117C39.3939 68.3304 39.0022 68.0317 38.68 67.6383L35.584 63.8706C35.2085 63.413 34.9975 62.7923 34.9975 62.1452C34.9975 61.498 35.2085 60.8773 35.584 60.4197C35.9595 59.9621 36.4689 59.705 37 59.705C37.5311 59.705 38.0405 59.9621 38.416 60.4197L40.604 63.0907L45.284 53.5813C45.419 53.3067 45.5971 53.0672 45.808 52.8765C46.019 52.6858 46.2587 52.5475 46.5135 52.4697C46.7683 52.3918 47.0332 52.3759 47.2931 52.4228C47.5529 52.4697 47.8027 52.5785 48.028 52.743C48.2533 52.9075 48.4499 53.1245 48.6064 53.3815C48.763 53.6386 48.8764 53.9307 48.9403 54.2412C49.0042 54.5517 49.0173 54.8745 48.9788 55.1911C48.9403 55.5077 48.851 55.812 48.716 56.0866Z" fill="black"/>
<path d="M0 4.87418C0 3.58148 0.421427 2.34173 1.17157 1.42766C1.92172 0.513583 2.93913 6.10352e-05 4 6.10352e-05L44 6.10352e-05C45.0609 6.10352e-05 46.0783 0.513583 46.8284 1.42766C47.5786 2.34173 48 3.58148 48 4.87418V40.2408C46.0728 39.4122 44.0437 38.9902 42 38.993C39.2163 38.9906 36.4703 39.776 33.9783 41.2876C31.4863 42.7991 29.3165 44.9953 27.64 47.7031C27.8755 47.2931 28.0012 46.8046 28 46.3042V41.4301C28 40.7837 27.7893 40.1639 27.4142 39.7068C27.0391 39.2498 26.5304 38.993 26 38.993H22C21.4696 38.993 20.9609 39.2498 20.5858 39.7068C20.2107 40.1639 20 40.7837 20 41.4301V46.3042C20 46.9506 20.2107 47.5704 20.5858 48.0275C20.9609 48.4845 21.4696 48.7413 22 48.7413H26C26.2994 48.7413 26.5951 48.6595 26.8651 48.5017C27.1351 48.344 27.3726 48.1143 27.56 47.8298C25.6504 50.9447 24.4586 54.6249 24.108 58.4895H18C17.4696 58.4895 16.9609 58.7463 16.5858 59.2033C16.2107 59.6603 16 60.2802 16 60.9266V77.986H4C2.93913 77.986 1.92172 77.4725 1.17157 76.5584C0.421427 75.6443 0 74.4046 0 73.1119V4.87418ZM8 12.1854V17.0595C8 17.7058 8.21071 18.3257 8.58579 18.7827C8.96086 19.2398 9.46957 19.4965 10 19.4965H14C14.5304 19.4965 15.0391 19.2398 15.4142 18.7827C15.7893 18.3257 16 17.7058 16 17.0595V12.1854C16 11.539 15.7893 10.9191 15.4142 10.4621C15.0391 10.0051 14.5304 9.7483 14 9.7483H10C9.46957 9.7483 8.96086 10.0051 8.58579 10.4621C8.21071 10.9191 8 11.539 8 12.1854ZM20 12.1854V17.0595C20 17.7058 20.2107 18.3257 20.5858 18.7827C20.9609 19.2398 21.4696 19.4965 22 19.4965H26C26.5304 19.4965 27.0391 19.2398 27.4142 18.7827C27.7893 18.3257 28 17.7058 28 17.0595V12.1854C28 11.539 27.7893 10.9191 27.4142 10.4621C27.0391 10.0051 26.5304 9.7483 26 9.7483H22C21.4696 9.7483 20.9609 10.0051 20.5858 10.4621C20.2107 10.9191 20 11.539 20 12.1854ZM34 9.7483C33.4696 9.7483 32.9609 10.0051 32.5858 10.4621C32.2107 10.9191 32 11.539 32 12.1854V17.0595C32 17.7058 32.2107 18.3257 32.5858 18.7827C32.9609 19.2398 33.4696 19.4965 34 19.4965H38C38.5304 19.4965 39.0391 19.2398 39.4142 18.7827C39.7893 18.3257 40 17.7058 40 17.0595V12.1854C40 11.539 39.7893 10.9191 39.4142 10.4621C39.0391 10.0051 38.5304 9.7483 38 9.7483H34ZM8 26.8077V31.6818C8 32.3282 8.21071 32.9481 8.58579 33.4051C8.96086 33.8621 9.46957 34.1189 10 34.1189H14C14.5304 34.1189 15.0391 33.8621 15.4142 33.4051C15.7893 32.9481 16 32.3282 16 31.6818V26.8077C16 26.1614 15.7893 25.5415 15.4142 25.0845C15.0391 24.6274 14.5304 24.3707 14 24.3707H10C9.46957 24.3707 8.96086 24.6274 8.58579 25.0845C8.21071 25.5415 8 26.1614 8 26.8077ZM22 24.3707C21.4696 24.3707 20.9609 24.6274 20.5858 25.0845C20.2107 25.5415 20 26.1614 20 26.8077V31.6818C20 32.3282 20.2107 32.9481 20.5858 33.4051C20.9609 33.8621 21.4696 34.1189 22 34.1189H26C26.5304 34.1189 27.0391 33.8621 27.4142 33.4051C27.7893 32.9481 28 32.3282 28 31.6818V26.8077C28 26.1614 27.7893 25.5415 27.4142 25.0845C27.0391 24.6274 26.5304 24.3707 26 24.3707H22ZM32 26.8077V31.6818C32 32.3282 32.2107 32.9481 32.5858 33.4051C32.9609 33.8621 33.4696 34.1189 34 34.1189H38C38.5304 34.1189 39.0391 33.8621 39.4142 33.4051C39.7893 32.9481 40 32.3282 40 31.6818V26.8077C40 26.1614 39.7893 25.5415 39.4142 25.0845C39.0391 24.6274 38.5304 24.3707 38 24.3707H34C33.4696 24.3707 32.9609 24.6274 32.5858 25.0845C32.2107 25.5415 32 26.1614 32 26.8077ZM10 38.993C9.46957 38.993 8.96086 39.2498 8.58579 39.7068C8.21071 40.1639 8 40.7837 8 41.4301V46.3042C8 46.9506 8.21071 47.5704 8.58579 48.0275C8.96086 48.4845 9.46957 48.7413 10 48.7413H14C14.5304 48.7413 15.0391 48.4845 15.4142 48.0275C15.7893 47.5704 16 46.9506 16 46.3042V41.4301C16 40.7837 15.7893 40.1639 15.4142 39.7068C15.0391 39.2498 14.5304 38.993 14 38.993H10Z" fill="black"/>
</svg>
